<svg xmlns="http://www.w3.org/2000/svg" viewBox="-163 255 284 284" enable-background="new -163 255 284 284">
  <title>No Image</title>
  <path fill="rgba(0,0,0,0.1)" d="M12.3 372.9l-3.9-22.6-79.3 13.9 11.6 66.2 7.9-1.3v5.7h80.5v-61.9H12.3zm-63.7 49.5l-2.5.5-9.4-53.4 66.5-11.7 2.7 15.1h-57.1v49.5h-.2zm74 5.8h-67.4v-48.8h67.4v48.8zm-63.1-44.4V420l13.7-9.1 8.5 5.3 20.6-22.6 2.7 1.1 13.3 15.4v-26.3h-58.8zm13.1 15.6c-3.1 0-5.8-2.7-5.8-5.8 0-3.1 2.7-5.8 5.8-5.8 3.1 0 5.8 2.7 5.8 5.8 0 3.1-2.7 5.8-5.8 5.8z"/>
</svg>
